<svg width="37" height="39" viewBox="0 0 37 39" fill="none" xmlns="http://www.w3.org/2000/svg">
<path d="M11.5 17.96C11.3618 17.96 11.2008 17.9944 11.1165 18.0916C10.6729 18.6032 11.8242 19.0897 12.4529 19.3412L17.1431 21.2172C18.3351 21.694 19.6649 21.694 20.857 21.2172L26.5 18.96C27.3 18.56 26.8333 18.1267 26.5 17.96M11.5 20.46C11.3618 20.46 11.2008 20.4944 11.1165 20.5916C10.6729 21.1032 11.8242 21.5897 12.4529 21.8412L17.1431 23.7172C18.3351 24.194 19.6649 24.194 20.857 23.7172L26.5 21.46C27.3 21.06 26.8334 20.6267 26.5 20.46" stroke="#C1BAFF"/>
<path d="M11.67 23.96C11 26.96 27 26.46 26.5 23.96M20.01 11.48C19.34 11.18 18.24 11.18 17.57 11.48C17.57 11.48 16.33 10.4 14 11.48C11.67 12.56 11.5 13.96 11.5 13.96C9.80002 14.71 9.97001 16.09 11.67 16.84L17.57 19.46C18.24 19.76 19.34 19.76 20.01 19.46L25.91 16.84C27.61 16.09 27.61 14.71 25.91 13.96C25.91 13.96 25.5 12.4 23 11.48C20.5 10.56 20.01 11.48 20.01 11.48Z" stroke="#072EFB" stroke-width="1.5" stroke-linecap="round" stroke-linejoin="round"/>
<path d="M10 17.96C10 18.7461 10.63 19.654 11.4 19.9722L18.19 22.7986C18.71 23.0138 19.3 23.0138 19.81 22.7986L26.6 19.9722C27.37 19.654 28 18.7461 28 17.96" stroke="#072EFB" stroke-width="1.5" stroke-linecap="round" stroke-linejoin="round"/>
<path d="M10 20.96C10 21.89 10.55 22.73 11.4 23.11L18.19 26.13C18.71 26.36 19.3 26.36 19.81 26.13L26.6 23.11C27.45 22.73 28 21.89 28 20.96" stroke="#072EFB" stroke-width="1.5" stroke-linecap="round" stroke-linejoin="round"/>
<path d="M25.8285 2H11.4667C6.23837 2 2 5.38581 2 9.56243V29.4376C2 33.6142 6.23837 37 11.4667 37H25.8285C31.0568 37 35.2952 33.6142 35.2952 29.4376V9.56243C35.2952 5.38581 31.0568 2 25.8285 2Z" stroke="white" stroke-width="2.70476"/>
</svg>
