<svg width="24" height="24" viewBox="0 0 24 24" fill="none" xmlns="http://www.w3.org/2000/svg">
<path d="M4.67 18C3.99999 21 20 20.5 19.5 18M13.01 5.52C12.34 5.22 11.24 5.22 10.57 5.52C10.57 5.52 9.32998 4.44 6.99999 5.52C4.66999 6.6 4.5 8 4.5 8C2.8 8.75 2.96999 10.13 4.66999 10.88L10.57 13.5C11.24 13.8 12.34 13.8 13.01 13.5L18.91 10.88C20.61 10.13 20.61 8.75 18.91 8C18.91 8 18.5 6.44 16 5.52C13.5 4.6 13.01 5.52 13.01 5.52Z" stroke="#072EFB" stroke-width="1.5" stroke-linecap="round" stroke-linejoin="round"/>
<path d="M3 12C3 12.7861 3.63 13.694 4.4 14.0122L11.19 16.8386C11.71 17.0538 12.3 17.0538 12.81 16.8386L19.6 14.0122C20.37 13.694 21 12.7861 21 12" stroke="#072EFB" stroke-width="1.5" stroke-linecap="round" stroke-linejoin="round"/>
<path d="M3 15C3 15.93 3.55 16.77 4.4 17.15L11.19 20.17C11.71 20.4 12.3 20.4 12.81 20.17L19.6 17.15C20.45 16.77 21 15.93 21 15" stroke="#072EFB" stroke-width="1.5" stroke-linecap="round" stroke-linejoin="round"/>
</svg>
