<svg width="37" height="39" viewBox="0 0 37 39" fill="none" xmlns="http://www.w3.org/2000/svg">
<path d="M9 28.4702H29" stroke="#1A00FF" stroke-width="1.5" stroke-miterlimit="10" stroke-linecap="round" stroke-linejoin="round"/>
<path d="M9.9502 28.4703L10.0002 16.4403C10.0002 15.8303 10.2902 15.2503 10.7702 14.8703L17.7702 9.4203C18.1223 9.1479 18.555 9 19.0002 9C19.4454 9 19.8781 9.1479 20.2302 9.4203L27.2302 14.8603C27.7202 15.2403 28.0002 15.8203 28.0002 16.4403V28.4703" stroke="#1A00FF" stroke-width="1.5" stroke-miterlimit="10" stroke-linejoin="round"/>
<path d="M20 23.4702H18C17.17 23.4702 16.5 24.1402 16.5 24.9702V28.4702H21.5V24.9702C21.5 24.1402 20.83 23.4702 20 23.4702ZM16.5 20.2202H14.5C13.95 20.2202 13.5 19.7702 13.5 19.2202V17.7202C13.5 17.1702 13.95 16.7202 14.5 16.7202H16.5C17.05 16.7202 17.5 17.1702 17.5 17.7202V19.2202C17.5 19.7702 17.05 20.2202 16.5 20.2202ZM23.5 20.2202H21.5C20.95 20.2202 20.5 19.7702 20.5 19.2202V17.7202C20.5 17.1702 20.95 16.7202 21.5 16.7202H23.5C24.05 16.7202 24.5 17.1702 24.5 17.7202V19.2202C24.5 19.7702 24.05 20.2202 23.5 20.2202Z" fill="#C1BAFF" stroke="#1A00FF" stroke-miterlimit="10" stroke-linejoin="round"/>
<path d="M25.9998 13.4702L25.9698 10.4702H21.5698" stroke="#1A00FF" stroke-width="1.5" stroke-miterlimit="10" stroke-linecap="round" stroke-linejoin="round"/>
<path d="M25.8285 2H11.4667C6.23837 2 2 5.38581 2 9.56243V29.4376C2 33.6142 6.23837 37 11.4667 37H25.8285C31.0568 37 35.2952 33.6142 35.2952 29.4376V9.56243C35.2952 5.38581 31.0568 2 25.8285 2Z" stroke="white" stroke-width="2.70476"/>
</svg>
