<svg width="24" height="24" viewBox="0 0 24 24" fill="none" xmlns="http://www.w3.org/2000/svg">
<path d="M4.67 19C3.99999 22 20 21.5 19.5 19M13.01 6.52C12.34 6.22 11.24 6.22 10.57 6.52C10.57 6.52 9.32998 5.44 6.99999 6.52C4.66999 7.6 4.5 9 4.5 9C2.8 9.75 2.96999 11.13 4.66999 11.88L10.57 14.5C11.24 14.8 12.34 14.8 13.01 14.5L18.91 11.88C20.61 11.13 20.61 9.75 18.91 9C18.91 9 18.5 7.44 16 6.52C13.5 5.6 13.01 6.52 13.01 6.52Z" stroke="black" stroke-width="1.5" stroke-linecap="round" stroke-linejoin="round"/>
<path d="M3 13C3 13.7861 3.63 14.694 4.4 15.0122L11.19 17.8386C11.71 18.0538 12.3 18.0538 12.81 17.8386L19.6 15.0122C20.37 14.694 21 13.7861 21 13" stroke="black" stroke-width="1.5" stroke-linecap="round" stroke-linejoin="round"/>
<path d="M3 16C3 16.93 3.55 17.77 4.4 18.15L11.19 21.17C11.71 21.4 12.3 21.4 12.81 21.17L19.6 18.15C20.45 17.77 21 16.93 21 16" stroke="black" stroke-width="1.5" stroke-linecap="round" stroke-linejoin="round"/>
</svg>
