<?xml version="1.0" encoding="utf-8"?>
<!-- Generator: Adobe Illustrator 27.3.1, SVG Export Plug-In . SVG Version: 6.00 Build 0)  -->
<svg version="1.1" id="Layer_1" xmlns="http://www.w3.org/2000/svg" xmlns:xlink="http://www.w3.org/1999/xlink" x="0px" y="0px"
	 viewBox="0 0 27.2 25.2" style="enable-background:new 0 0 27.2 25.2;" xml:space="preserve">
<style type="text/css">
	.st0{fill:#D1D1D1;}
	.st1{fill:#D1D1D1;stroke:#000000;stroke-width:1.4;stroke-linecap:round;stroke-linejoin:round;}
	.st2{fill:none;stroke:#000000;stroke-width:1.4;stroke-linecap:round;stroke-linejoin:round;}
</style>
<g>
	<path class="st0" d="M4.5,18.9c-0.8,3.7,19,3.1,18.4,0c-2.5,0-5.9,2.5-9.6,2.6C9.2,21.5,7.2,18.7,4.5,18.9z"/>
	<path class="st1" d="M22.9,18.9h-2.2c0,0-0.1,0-0.1,0c0,0-0.1,0-0.1,0c-0.1,0-0.1,0.1-0.2,0.1c-0.2,0.1-0.4,0.2-0.7,0.3
		c-0.5,0.2-0.9,0.4-1.4,0.6c-0.4,0.3-0.8,0.4-1.2,0.6c-0.5,0.2-1,0.5-1.5,0.8C19.6,21.1,23.2,20.2,22.9,18.9z"/>
	<path class="st1" d="M9.8,20.7c-0.2-0.1-0.5-0.3-0.7-0.5c-0.4-0.2-0.8-0.3-1.2-0.5c-0.5-0.2-1.1-0.4-1.5-0.7c0,0-0.1-0.1-0.1-0.1
		c0,0-0.1,0-0.1,0H4.5c-0.4,1.6,3.1,2.4,7,2.5C10.9,21.2,10.3,21,9.8,20.7z"/>
	<path class="st1" d="M22.2,6.5c0,0-0.5-1.9-3.6-3.1c-3.1-1.1-3.7,0-3.7,0c-0.8-0.4-2.2-0.4-3,0c0,0-1.5-1.3-4.4,0
		C4.5,4.7,4.3,6.5,4.3,6.5C2.2,7.4,2.4,9.1,4.5,10l7.3,3.2c0.8,0.4,2.2,0.4,3,0l7.3-3.2C24.3,9.1,24.3,7.4,22.2,6.5z"/>
	<path class="st2" d="M2.4,11.4c0,1,0.8,2.1,1.7,2.5l8.4,3.5c0.6,0.3,1.4,0.3,2,0l8.4-3.5c1-0.4,1.7-1.5,1.7-2.5"/>
	<path class="st2" d="M2.4,15.2c0,1.2,0.7,2.2,1.7,2.7l8.4,3.7c0.6,0.3,1.4,0.3,2,0l8.4-3.7c1.1-0.5,1.7-1.5,1.7-2.7"/>
</g>
</svg>
