<?xml version="1.0" encoding="utf-8"?>
<!-- Generator: Adobe Illustrator 27.3.1, SVG Export Plug-In . SVG Version: 6.00 Build 0)  -->
<svg version="1.1" id="Odesza_2" xmlns="http://www.w3.org/2000/svg" xmlns:xlink="http://www.w3.org/1999/xlink" x="0px" y="0px"
	 viewBox="0 0 9.5 10.5" style="enable-background:new 0 0 9.5 10.5;" xml:space="preserve">
<style type="text/css">
	.st0{fill:#B99B4E;}
	.st1{fill:#030401;}
</style>
<path class="st0" d="M8.8,3C8.5,2.8,8.1,2.6,7.8,2.4c-0.3-0.2-0.6-0.4-1-0.6C6.5,1.7,6.2,1.5,5.8,1.3C5.6,1.2,5.4,1,5.1,0.9
	c0,0-0.1,0-0.2,0C4.8,0.9,4.7,0.9,4.7,1C4.5,1.1,4.3,1.2,4.1,1.3C3.8,1.5,3.5,1.6,3.3,1.8C3.1,1.9,3,2,2.8,2.1
	C2.5,2.2,2.3,2.3,2.1,2.5C1.8,2.6,1.5,2.8,1.3,3C1.1,3,1.1,3.1,1.1,3.3c0,0.7,0,1.4,0,2c0,0.7,0,1.4,0,2.1c0,0.1,0,0.2,0,0.2
	c0.1,0.1,0.2,0.2,0.4,0.2c0.4,0.2,0.8,0.5,1.3,0.7C3,8.7,3.3,8.9,3.6,9.1C4,9.3,4.4,9.5,4.8,9.8c0.1,0,0.2,0.1,0.2,0
	c0.3-0.1,0.6-0.3,0.8-0.5c0.5-0.3,1-0.6,1.5-0.9C7.6,8.3,7.9,8.2,8.2,8C8.3,8,8.5,7.9,8.7,7.8c0.1-0.1,0.3-0.2,0.3-0.3
	c0-1.4,0-2.8,0-4.2C8.9,3.1,8.9,3,8.8,3L8.8,3z M8.7,3.3C8.7,3.6,8.6,3.8,8.5,4.1C8.4,4.5,8.3,5,8.2,5.4C8.2,5.7,8.1,6,8,6.3
	c0,0.1,0,0.2-0.1,0.3c0,0,0,0.1-0.1,0.2C6.9,5.4,6.1,4,5.2,2.6c0,0,0,0,0,0c0.2,0,0.4,0.1,0.5,0.1c0.2,0,0.4,0.1,0.6,0.1
	C6.9,2.8,7.3,2.9,7.8,3C8.1,3,8.3,3.1,8.6,3.1C8.8,3.2,8.8,3.2,8.7,3.3L8.7,3.3z M5.1,1.2c0-0.1,0-0.1,0.1-0.1
	C5.5,1.3,5.7,1.4,6,1.6c0.2,0.1,0.3,0.2,0.5,0.3C6.9,2,7.2,2.3,7.6,2.5C7.8,2.6,8,2.7,8.2,2.8c0,0,0,0,0.1,0.1c-0.1,0-0.2,0-0.3,0
	C7.7,2.8,7.5,2.8,7.2,2.7c-0.3,0-0.6-0.1-0.8-0.1C6.1,2.6,5.8,2.5,5.5,2.4c-0.1,0-0.2,0-0.3-0.1c-0.1,0-0.1-0.1-0.1-0.1
	C5.1,1.9,5.1,1.5,5.1,1.2L5.1,1.2z M5.1,2.6C5.3,3.1,5.6,3.6,5.9,4c0.4,0.6,0.8,1.2,1.2,1.9c0.2,0.3,0.4,0.6,0.6,0.9
	C7.7,6.9,7.7,7,7.6,7C6.2,7,4.8,7,3.4,7C3.1,7,2.8,7,2.5,7c-0.1,0-0.1,0-0.2,0c0.1-0.1,0.1-0.2,0.2-0.3c0.2-0.3,0.4-0.7,0.6-1
	C3.3,5.3,3.5,5,3.7,4.7c0.2-0.3,0.4-0.7,0.6-1C4.5,3.3,4.7,3,4.9,2.6C5,2.6,5,2.5,5.1,2.6L5.1,2.6z M2.1,2.6C2.4,2.4,2.8,2.2,3.2,2
	C3.6,1.8,4,1.6,4.4,1.3c0.1-0.1,0.2-0.1,0.3-0.2c0,0,0.1,0,0.2-0.1c0,0.1,0,0.1,0,0.2c0,0.3,0,0.6,0,0.9c0,0.2,0,0.3-0.3,0.3
	C4.5,2.4,4.2,2.5,4,2.5c-0.2,0-0.3,0.1-0.5,0.1c-0.3,0.1-0.7,0.1-1,0.2C2.3,2.9,2,2.9,1.7,2.9l0-0.1C1.8,2.8,1.9,2.7,2.1,2.6
	L2.1,2.6z M1.4,3.1C1.6,3.1,1.9,3,2.2,3c0.6-0.1,1.2-0.2,1.7-0.3c0.3,0,0.5-0.1,0.8-0.2c0,0,0.1,0,0.1,0c0,0.1-0.1,0.2-0.1,0.2
	C4.5,3.2,4.2,3.6,4,4C3.6,4.5,3.3,5,3,5.5C2.8,5.8,2.7,6,2.5,6.3C2.4,6.4,2.4,6.6,2.3,6.7c0,0,0,0-0.1,0.1c0,0,0,0,0-0.1
	c0-0.1-0.1-0.3-0.1-0.4C2,6,1.9,5.7,1.8,5.5c-0.1-0.3-0.2-0.6-0.2-1C1.5,4.3,1.4,4,1.4,3.7c0-0.1-0.1-0.3-0.1-0.4
	C1.2,3.2,1.3,3.2,1.4,3.1z M1.2,7.3C1.2,7.3,1.2,7.3,1.2,7.3c0-1.1,0-2.1,0-3.1c0-0.1,0-0.1,0-0.2c0,0,0,0,0.1,0
	c0,0.1,0.1,0.2,0.1,0.3c0,0.1,0.1,0.3,0.1,0.4c0.1,0.3,0.2,0.6,0.3,1C1.8,6,1.9,6.3,2,6.6c0,0,0,0.1,0.1,0.1C2.1,6.9,2.1,7,1.9,7.1
	C1.7,7.2,1.5,7.3,1.4,7.4C1.2,7.4,1.2,7.4,1.2,7.3L1.2,7.3z M4.3,9.3c-1-0.5-2-1.1-3-1.7c0,0,0.1,0,0.1,0C1.6,7.4,1.8,7.3,2,7.2
	c0.1,0,0.2,0,0.2,0c0.3,0.3,0.6,0.6,0.9,0.9c0.2,0.2,0.5,0.5,0.8,0.7C4.1,9,4.2,9.1,4.3,9.3C4.3,9.2,4.3,9.3,4.3,9.3z M4.9,9.6
	C4.5,9.3,4.2,8.9,3.9,8.6C3.6,8.3,3.3,8,3,7.7C2.8,7.6,2.6,7.4,2.5,7.2c0,0,0,0,0-0.1c0,0,0,0,0,0c0,0,0,0,0,0c0,0,0,0,0,0
	c0,0,0,0,0,0c0,0,0,0,0,0c0.1,0,0.3,0,0.4,0c1.5,0,3,0,4.5,0c0.1,0,0.1,0,0.2,0c0,0,0,0.1,0,0.1C7.6,7.3,7.4,7.4,7.3,7.5
	C6.9,7.8,6.6,8.2,6.2,8.6c-0.4,0.3-0.7,0.7-1,1C5,9.7,4.9,9.7,4.9,9.6L4.9,9.6z M5.7,9.3C5.7,9.3,5.7,9.3,5.7,9.3
	c0-0.1,0.1-0.2,0.1-0.2c0.3-0.3,0.6-0.6,0.9-0.9c0.3-0.3,0.7-0.6,1-0.9c0.1-0.1,0.1-0.1,0.2,0c0.2,0.1,0.4,0.2,0.6,0.4
	c0,0,0,0,0,0.1C7.7,8.2,6.7,8.7,5.7,9.3L5.7,9.3z M8.8,7.3c0,0.1,0,0.1,0,0.2c-0.1,0-0.1,0-0.2-0.1C8.4,7.3,8.3,7.2,8.1,7.1
	C8,7,8,7,8,6.9c0.1-0.3,0.2-0.6,0.2-1c0-0.1,0-0.2,0.1-0.3c0.1-0.4,0.2-0.9,0.3-1.3c0-0.1,0-0.2,0.1-0.2c0,0,0,0,0.1,0
	c0,0,0,0.1,0,0.1C8.8,5.2,8.8,6.2,8.8,7.3L8.8,7.3z"/>
<path class="st0" d="M1.1,5.3c0-0.7,0-1.4,0-2C1.1,4,1.1,4.7,1.1,5.3c0,0.7,0,1.4,0,2.1C1.1,6.7,1.1,6,1.1,5.3z"/>
<path class="st1" d="M2.4,7.1C2.5,7.1,2.5,7.1,2.4,7.1C2.5,7.1,2.5,7.1,2.4,7.1z"/>
<path class="st1" d="M2.4,7.1C2.4,7.1,2.4,7.1,2.4,7.1C2.4,7.2,2.4,7.2,2.4,7.1C2.4,7.2,2.4,7.2,2.4,7.1C2.4,7.1,2.4,7.1,2.4,7.1z"
	/>
</svg>
